<svg width="28" height="28" viewBox="0 0 28 28" fill="none" xmlns="http://www.w3.org/2000/svg">
<path d="M22.7495 14.6674L13.9995 23.3334L5.24954 14.6674C4.67239 14.1057 4.21779 13.4307 3.91434 12.6848C3.6109 11.9388 3.46519 11.1381 3.4864 10.3331C3.5076 9.52809 3.69526 8.73618 4.03755 8.00725C4.37985 7.27832 4.86936 6.62815 5.47527 6.0977C6.08118 5.56725 6.79036 5.16799 7.55815 4.92508C8.32594 4.68217 9.13571 4.60087 9.93647 4.68629C10.7372 4.77171 11.5116 5.02201 12.2109 5.42141C12.9102 5.82082 13.5192 6.36069 13.9995 7.00702C14.482 6.36538 15.0917 5.83023 15.7905 5.43506C16.4893 5.03989 17.2621 4.79321 18.0606 4.71046C18.8591 4.62771 19.6661 4.71067 20.4311 4.95415C21.1961 5.19762 21.9026 5.59638 22.5063 6.12545C23.1101 6.65452 23.5982 7.30252 23.94 8.0289C24.2819 8.75527 24.4701 9.54439 24.4929 10.3468C24.5157 11.1493 24.3727 11.9478 24.0727 12.6925C23.7727 13.4371 23.3223 14.1118 22.7495 14.6744" stroke="#4B5563" stroke-width="2" stroke-linecap="round" stroke-linejoin="round"/>
</svg>
