<svg width="101" height="36" viewBox="0 0 101 36" fill="none" xmlns="http://www.w3.org/2000/svg">
<path d="M48.7 25V14.02H44.48V11.4H56.14V14.02H51.92V25H48.7ZM60.9147 25.32C57.6547 25.32 55.6347 23.16 55.6347 19.62C55.6347 15.96 57.7147 13.9 60.9147 13.9C64.1747 13.9 66.2147 16.1 66.2147 19.62C66.2147 23.26 64.1147 25.32 60.9147 25.32ZM60.9147 22.84C62.3347 22.84 63.0747 21.72 63.0747 19.62C63.0747 17.54 62.3147 16.38 60.9147 16.38C59.5147 16.38 58.7747 17.52 58.7747 19.62C58.7747 21.7 59.5347 22.84 60.9147 22.84ZM67.833 25V10.6H70.893V18.6L74.353 14.24H77.853L73.853 18.98L78.153 25H74.473L70.893 19.98V25H67.833ZM83.3561 25.32C80.0961 25.32 78.0761 23.16 78.0761 19.62C78.0761 15.96 80.1561 13.9 83.3561 13.9C86.6161 13.9 88.6561 16.1 88.6561 19.62C88.6561 23.26 86.5561 25.32 83.3561 25.32ZM83.3561 22.84C84.7761 22.84 85.5161 21.72 85.5161 19.62C85.5161 17.54 84.7561 16.38 83.3561 16.38C81.9561 16.38 81.2161 17.52 81.2161 19.62C81.2161 21.7 81.9761 22.84 83.3561 22.84ZM95.0944 25.32C91.8344 25.32 89.8144 23.16 89.8144 19.62C89.8144 15.96 91.8944 13.9 95.0944 13.9C98.3544 13.9 100.394 16.1 100.394 19.62C100.394 23.26 98.2944 25.32 95.0944 25.32ZM95.0944 22.84C96.5144 22.84 97.2544 21.72 97.2544 19.62C97.2544 17.54 96.4944 16.38 95.0944 16.38C93.6944 16.38 92.9544 17.52 92.9544 19.62C92.9544 21.7 93.7144 22.84 95.0944 22.84Z" fill="#0569E3"/>
<rect width="36" height="36" rx="4" fill="#0569E3"/>
<path d="M9.51562 9.51465L13.7583 13.7573M26.4862 26.4852L22.2435 22.2426M19.0616 19.0606L18.0009 17.9999L16.9402 16.9393" stroke="white" stroke-width="2"/>
<path d="M26.4844 9.51465L22.2417 13.7573M9.51381 26.4852L13.7565 22.2426" stroke="white" stroke-width="2"/>
</svg>
