<svg width="28" height="28" viewBox="0 0 28 28" fill="none" xmlns="http://www.w3.org/2000/svg">
<path d="M9.33333 10.5H18.6667M9.33333 15.1667H16.3333M21 4.66669C21.9283 4.66669 22.8185 5.03544 23.4749 5.69181C24.1313 6.34819 24.5 7.23843 24.5 8.16669V17.5C24.5 18.4283 24.1313 19.3185 23.4749 19.9749C22.8185 20.6313 21.9283 21 21 21H15.1667L9.33333 24.5V21H7C6.07174 21 5.1815 20.6313 4.52513 19.9749C3.86875 19.3185 3.5 18.4283 3.5 17.5V8.16669C3.5 7.23843 3.86875 6.34819 4.52513 5.69181C5.1815 5.03544 6.07174 4.66669 7 4.66669H21Z" stroke="#4B5563" stroke-width="2" stroke-linecap="round" stroke-linejoin="round"/>
</svg>
