<svg width="28" height="28" viewBox="0 0 28 28" fill="none" xmlns="http://www.w3.org/2000/svg">
<path d="M7.0013 19.8333C7.62014 19.8333 8.21363 20.0792 8.65122 20.5168C9.0888 20.9543 9.33464 21.5478 9.33464 22.1667C9.33464 22.7855 9.0888 23.379 8.65122 23.8166C8.21363 24.2542 7.62014 24.5 7.0013 24.5C6.38246 24.5 5.78897 24.2542 5.35139 23.8166C4.9138 23.379 4.66797 22.7855 4.66797 22.1667C4.66797 21.5478 4.9138 20.9543 5.35139 20.5168C5.78897 20.0792 6.38246 19.8333 7.0013 19.8333ZM7.0013 19.8333H19.8346M7.0013 19.8333V3.5H4.66797M19.8346 19.8333C20.4535 19.8333 21.047 20.0792 21.4846 20.5168C21.9221 20.9543 22.168 21.5478 22.168 22.1667C22.168 22.7855 21.9221 23.379 21.4846 23.8166C21.047 24.2542 20.4535 24.5 19.8346 24.5C19.2158 24.5 18.6223 24.2542 18.1847 23.8166C17.7471 23.379 17.5013 22.7855 17.5013 22.1667C17.5013 21.5478 17.7471 20.9543 18.1847 20.5168C18.6223 20.0792 19.2158 19.8333 19.8346 19.8333ZM7.0013 5.83333L23.3346 7L22.168 15.1667H7.0013" stroke="#4B5563" stroke-width="2" stroke-linecap="round" stroke-linejoin="round"/>
</svg>
